<?xml version="1.0" encoding="utf-8"?>
<!-- Generator: Adobe Illustrator 24.0.2, SVG Export Plug-In . SVG Version: 6.00 Build 0)  -->
<svg version="1.1" id="레이어_1" xmlns="http://www.w3.org/2000/svg" xmlns:xlink="http://www.w3.org/1999/xlink" x="0px"
	 y="0px" viewBox="0 0 512 512" style="enable-background:new 0 0 512 512;" xml:space="preserve">
<style type="text/css">
	.st0{fill:#333333;}
	.st1{display:none;}
	.st2{display:inline;}
</style>
<g id="레이어_1_1_" focusable="false">
	<path class="st0" d="M508.5,468.9L387.1,347.5c-2.3-2.3-5.3-3.5-8.5-3.5h-13.2c31.5-36.5,50.6-84,50.6-136C416,93.1,322.9,0,208,0
		S0,93.1,0,208s93.1,208,208,208c52,0,99.5-19.1,136-50.6v13.2c0,3.2,1.3,6.2,3.5,8.5l121.4,121.4c4.7,4.7,12.3,4.7,17,0l22.6-22.6
		C513.2,481.2,513.2,473.6,508.5,468.9z M208,368c-88.4,0-160-71.6-160-160S119.6,48,208,48s160,71.6,160,160S296.4,368,208,368z"/>
</g>
<g id="레이어_2_1_" class="st1">
	<g class="st2">
		<rect x="-63.6" y="227.9" transform="matrix(0.7071 -0.7071 0.7071 0.7071 -106.0897 256.0182)" width="639.1" height="56.3"/>
		<rect x="227.8" y="-63.6" transform="matrix(0.7071 -0.7071 0.7071 0.7071 -106.0569 255.949)" width="56.3" height="639.1"/>
	</g>
</g>
</svg>
