<?xml version="1.0" encoding="utf-8"?>
<!-- Generator: Adobe Illustrator 25.1.0, SVG Export Plug-In . SVG Version: 6.00 Build 0)  -->
<svg version="1.1" id="레이어_1" xmlns="http://www.w3.org/2000/svg" xmlns:xlink="http://www.w3.org/1999/xlink" x="0px"
	 y="0px" viewBox="0 0 100 100" style="enable-background:new 0 0 100 100;" xml:space="preserve">
<style type="text/css">
	.st0{display:none;}
	.st1{display:inline;}
	.st2{fill:#333333;}
</style>
<g id="레이어_1_2_" class="st0">
	<g id="레이어_1_1_" focusable="false" class="st1">
		<path class="st2" d="M302.5,262.9L181.1,141.5c-2.3-2.3-5.3-3.5-8.5-3.5h-13.2C190.9,101.5,210,54,210,2c0-114.9-93.1-208-208-208
			S-206-112.9-206,2s93.1,208,208,208c52,0,99.5-19.1,136-50.6v13.2c0,3.2,1.3,6.2,3.5,8.5l121.4,121.4c4.7,4.7,12.3,4.7,17,0
			l22.6-22.6C307.2,275.2,307.2,267.6,302.5,262.9z M2,162c-88.4,0-160-71.6-160-160S-86.4-158,2-158S162-86.4,162,2S90.4,162,2,162
			z"/>
	</g>
	<g id="레이어_2_1_" class="st1">
		<g>
			<rect x="-269.6" y="21.9" transform="matrix(0.7071 -0.7071 0.7071 0.7071 -20.7895 49.9875)" width="639.1" height="56.3"/>
			<rect x="21.8" y="-269.6" transform="matrix(0.7071 -0.7071 0.7071 0.7071 -20.7017 49.9197)" width="56.3" height="639.1"/>
		</g>
	</g>
</g>
<g id="레이어_2_2_">
	<rect x="46.8" width="6.4" height="100"/>
	<rect y="46.8" width="100" height="6.4"/>
</g>
</svg>
