<?xml version="1.0" encoding="utf-8"?>
<!-- Generator: Adobe Illustrator 25.2.1, SVG Export Plug-In . SVG Version: 6.00 Build 0)  -->
<svg version="1.1" id="레이어_1" xmlns="http://www.w3.org/2000/svg" xmlns:xlink="http://www.w3.org/1999/xlink" x="0px"
	 y="0px" viewBox="0 0 80 80" style="enable-background:new 0 0 80 80;" xml:space="preserve">
<style type="text/css">
	.st0{fill-rule:evenodd;clip-rule:evenodd;fill:#FFFFFF;}
</style>
<path class="st0" d="M78.5,78.5c-2,2-5.2,2-7.1,0L55.9,63.1C50.1,67.5,42.8,70,35,70C15.7,70,0,54.3,0,35S15.7,0,35,0s35,15.7,35,35
	c0,7.8-2.6,15.1-6.9,20.9l15.4,15.4C80.5,73.3,80.5,76.5,78.5,78.5z M35,10c-13.8,0-25,11.2-25,25s11.2,25,25,25s25-11.2,25-25
	S48.8,10,35,10z"/>
</svg>
