<?xml version="1.0" encoding="utf-8"?>
<!-- Generator: Adobe Illustrator 25.2.0, SVG Export Plug-In . SVG Version: 6.00 Build 0)  -->
<svg version="1.1" id="레이어_1" xmlns="http://www.w3.org/2000/svg" xmlns:xlink="http://www.w3.org/1999/xlink" x="0px"
	 y="0px" viewBox="0 0 34.9 34.9" style="enable-background:new 0 0 34.9 34.9;" xml:space="preserve">
<style type="text/css">
	.st0{fill:#909090;}
</style>
<g>
	<path class="st0" d="M34.9,17.4c0,9.6-7.8,17.4-17.4,17.4S0,27.1,0,17.4S7.8,0,17.4,0S34.9,7.8,34.9,17.4z M17.4,2.2
		C9,2.2,2.2,9.1,2.2,17.4c0,8.4,6.8,15.2,15.2,15.2c8.4,0,15.2-6.8,15.2-15.2C32.6,9,25.8,2.2,17.4,2.2z M16.4,19.5
		c-0.2-0.2-0.3-0.4-0.3-0.7V7.6c0-0.5,0.4-0.8,0.8-0.8h1c0.5,0,0.8,0.4,0.8,0.8v10.3l5,3.6c0.4,0.3,0.5,0.8,0.2,1.2l-0.6,0.8
		c-0.3,0.4-0.8,0.5-1.2,0.2L16.4,19.5z"/>
</g>
</svg>
