<?xml version="1.0" encoding="utf-8"?>
<!-- Generator: Adobe Illustrator 25.2.0, SVG Export Plug-In . SVG Version: 6.00 Build 0)  -->
<svg version="1.1" id="레이어_1" xmlns="http://www.w3.org/2000/svg" xmlns:xlink="http://www.w3.org/1999/xlink" x="0px"
	 y="0px" viewBox="0 0 30 30" style="enable-background:new 0 0 30 30;" xml:space="preserve">
<style type="text/css">
	.st0{fill:#FFFFFF;}
</style>
<path class="st0" d="M17.7,15L29.4,3.3c0.8-0.8,0.8-2,0-2.7c-0.8-0.8-2-0.8-2.7,0L15,12.3L3.3,0.6c-0.8-0.8-2-0.8-2.7,0
	s-0.8,2,0,2.7L12.3,15L0.6,26.7c-0.8,0.8-0.8,2,0,2.7C1,29.8,1.4,30,1.9,30s1-0.2,1.4-0.6L15,17.8l11.7,11.7
	c0.4,0.4,0.9,0.6,1.4,0.6s1-0.2,1.4-0.6c0.8-0.8,0.8-2,0-2.7L17.7,15z"/>
</svg>
