<?xml version="1.0" encoding="utf-8"?>
<!-- Generator: Adobe Illustrator 25.2.0, SVG Export Plug-In . SVG Version: 6.00 Build 0)  -->
<svg version="1.1" id="레이어_1" xmlns="http://www.w3.org/2000/svg" xmlns:xlink="http://www.w3.org/1999/xlink" x="0px"
	 y="0px" viewBox="0 0 80 80" style="enable-background:new 0 0 80 80;" xml:space="preserve">
<style type="text/css">
	.st0{fill:none;}
	.st1{fill:#FFFFFF;stroke:#37588E;stroke-width:1.781;stroke-linecap:round;stroke-linejoin:round;}
	.st2{fill:#A9CCFF;stroke:#37588E;stroke-width:1.781;stroke-linecap:round;stroke-linejoin:round;}
	.st3{fill:none;stroke:#37588E;stroke-width:1.78;}
	.st4{fill:none;stroke:#37588E;stroke-width:1.78;stroke-linecap:round;stroke-linejoin:round;}
	.st5{fill:none;stroke:#37588E;stroke-width:1.782;}
	.st6{clip-path:url(#SVGID_2_);}
	.st7{fill:#FFFFFF;}
	.st8{fill:none;stroke:#37588E;stroke-width:1.781;stroke-linecap:round;stroke-linejoin:round;}
	.st9{fill:#A9CCFF;}
	.st10{fill:#FFFFFF;stroke:#37588E;stroke-width:2.074;stroke-linecap:round;stroke-linejoin:round;}
	.st11{fill:#A9CCFF;stroke:#37588E;stroke-width:2.074;stroke-linecap:round;stroke-linejoin:round;}
	.st12{fill:none;stroke:#37588E;stroke-width:2.075;stroke-linecap:round;stroke-linejoin:round;}
	.st13{fill:none;stroke:#37588E;stroke-width:2.075;stroke-linecap:round;}
	.st14{fill:none;stroke:#37588E;stroke-width:2.074;stroke-linecap:round;}
	.st15{fill:none;stroke:#37588E;stroke-width:2.074;stroke-linecap:round;stroke-linejoin:round;}
	.st16{clip-path:url(#SVGID_4_);}
	.st17{fill:none;stroke:#37588E;stroke-width:2;stroke-linecap:round;stroke-linejoin:round;}
	.st18{clip-path:url(#SVGID_6_);}
	.st19{fill:none;stroke:#37588E;stroke-width:2.216;stroke-linecap:round;stroke-linejoin:round;}
</style>
<rect x="-194.1" class="st0" width="80" height="80"/>
<rect x="-96.7" y="-0.2" class="st0" width="80" height="80"/>
<rect x="0" y="-0.3" class="st0" width="80" height="80"/>
<rect x="100.5" y="-0.3" class="st0" width="80" height="80"/>
<rect x="196.8" y="-0.2" class="st0" width="80" height="80"/>
<g transform="translate(-315.725 -333.221)">
	<path class="st1" d="M137.2,343h48.9c4.4,0,8,3.6,8,8v40.3c0,4.4-3.6,8-8,8h-48.9c-4.4,0-8-3.6-8-8V351
		C129.2,346.6,132.8,343,137.2,343z"/>
	<path class="st1" d="M186.1,395.4h-48.9c-2.2,0-4-1.8-4-4V351c0-2.2,1.8-4,4-4h48.9c2.2,0,4,1.8,4,4v40.3
		C190.1,393.6,188.3,395.4,186.1,395.4L186.1,395.4z"/>
	<path class="st2" d="M122.2,391.8v3.6c0,4.4,3.6,8,8,8c0,0,0,0,0,0h62.9c4.4,0,8-3.6,8-8c0,0,0,0,0,0v-3.6H122.2z"/>
	<line class="st3" x1="157.9" y1="397.6" x2="168.1" y2="397.6"/>
	<path class="st1" d="M167.2,362.3c0,3.7-2.5,6.7-5.6,6.7s-5.6-3-5.6-6.7s2.5-6.7,5.6-6.7S167.2,358.6,167.2,362.3z"/>
	<path class="st1" d="M167.8,379.6v12.1h4.6v-14.9c0-3.2-2.6-5.8-5.8-5.8h-9.7c-3.2,0-5.8,2.6-5.8,5.8v14.9h4.6v-12.1"/>
	<line class="st4" x1="155.6" y1="391.7" x2="151" y2="391.7"/>
	<line class="st4" x1="172.3" y1="391.7" x2="167.8" y2="391.7"/>
	<path class="st1" d="M155.6,379.6v12.1h12.2v-12.1"/>
	<line class="st4" x1="167.8" y1="391.7" x2="155.6" y2="391.7"/>
	<path class="st2" d="M196.8,351.8h-20.9c-1.9,0-3.4,1.5-3.4,3.4c0,0,0,0,0,0v11.2c0,1.9,1.5,3.4,3.4,3.4h1.8v4.9l5.4-4.9h13.7
		c1.9,0,3.4-1.5,3.4-3.4v-11.2C200.1,353.4,198.6,351.8,196.8,351.8C196.8,351.8,196.8,351.8,196.8,351.8z"/>
	<line class="st5" x1="180.5" y1="359.8" x2="180.5" y2="362.5"/>
	<line class="st5" x1="186.3" y1="359.8" x2="186.3" y2="362.5"/>
	<line class="st5" x1="192.2" y1="359.8" x2="192.2" y2="362.5"/>
</g>
<g transform="translate(0 0)">
	<g>
		<defs>
			<rect id="SVGID_1_" x="16.1" y="6.8" width="47.8" height="65.9"/>
		</defs>
		<clipPath id="SVGID_2_">
			<use xlink:href="#SVGID_1_"  style="overflow:visible;"/>
		</clipPath>
		<g class="st6">
			<path class="st7" d="M59.4,20.7V10.3c0-0.2,0-0.5,0-0.7H20.6c0,0.2,0,0.5,0,0.7v10.4c0,2.9,0.6,5.7,1.9,8.3h35.2
				C58.8,26.4,59.5,23.5,59.4,20.7"/>
			<path class="st8" d="M59.4,20.7V10.3c0-0.2,0-0.5,0-0.7H20.6c0,0.2,0,0.5,0,0.7v10.4c0,2.9,0.6,5.7,1.9,8.3h35.2
				C58.8,26.4,59.5,23.5,59.4,20.7z"/>
			<path class="st7" d="M59.6,71.5c0-0.7-0.1-1.4-0.2-2.1c0,0.2,0,0.3,0,0.5H20.6c0-0.2,0-0.3,0-0.5c-0.1,0.7-0.2,1.4-0.2,2.1
				L59.6,71.5z"/>
			<path class="st8" d="M59.6,71.5c0-0.7-0.1-1.4-0.2-2.1c0,0.2,0,0.3,0,0.5H20.6c0-0.2,0-0.3,0-0.5c-0.1,0.7-0.2,1.4-0.2,2.1
				L59.6,71.5z"/>
			<path class="st9" d="M40,57.1c9.9,0,18.1,5.4,19.5,12.4c0-0.1,0-0.2,0-0.3V58.8c0-9.3-6.5-17.2-15.6-19.1
				c6-1.2,11.1-5.2,13.8-10.8H22.4c2.6,5.6,7.7,9.6,13.8,10.8c-9.1,1.8-15.6,9.8-15.6,19.1v10.4c0,0.1,0,0.2,0,0.3
				C21.9,62.5,30.1,57.1,40,57.1"/>
			<path class="st8" d="M40,57.1c9.9,0,18.1,5.4,19.5,12.4c0-0.1,0-0.2,0-0.3V58.8c0-9.3-6.5-17.2-15.6-19.1
				c6-1.2,11.1-5.2,13.8-10.8H22.4c2.6,5.6,7.7,9.6,13.8,10.8c-9.1,1.8-15.6,9.8-15.6,19.1v10.4c0,0.1,0,0.2,0,0.3
				C21.9,62.5,30.1,57.1,40,57.1z"/>
			<path class="st7" d="M59.4,69.9c0-0.2,0-0.3,0-0.5c-1.4-7-9.6-12.4-19.5-12.4s-18.1,5.4-19.5,12.4c0,0.2,0,0.3,0,0.5H59.4z"/>
			<path class="st8" d="M59.4,69.9c0-0.2,0-0.3,0-0.5c-1.4-7-9.6-12.4-19.5-12.4s-18.1,5.4-19.5,12.4c0,0.2,0,0.3,0,0.5H59.4z"/>
			<path class="st7" d="M18.6,66.6h42.9c0.9,0,1.6,0.7,1.6,1.6c0,0,0,0,0,0v2.1c0,0.9-0.7,1.6-1.6,1.6H18.6c-0.9,0-1.6-0.7-1.6-1.6
				v-2.1C17,67.3,17.7,66.6,18.6,66.6C18.6,66.6,18.6,66.6,18.6,66.6z"/>
			<path class="st8" d="M18.6,66.6h42.9c0.9,0,1.6,0.7,1.6,1.6c0,0,0,0,0,0v2.1c0,0.9-0.7,1.6-1.6,1.6H18.6c-0.9,0-1.6-0.7-1.6-1.6
				v-2.1C17,67.3,17.7,66.6,18.6,66.6C18.6,66.6,18.6,66.6,18.6,66.6z"/>
			<path class="st7" d="M18.6,7.7h42.9c0.9,0,1.6,0.7,1.6,1.6c0,0,0,0,0,0v2.1c0,0.9-0.7,1.6-1.6,1.6H18.6c-0.9,0-1.6-0.7-1.6-1.6
				V9.2C17,8.4,17.7,7.7,18.6,7.7C18.6,7.7,18.6,7.7,18.6,7.7z"/>
			<path class="st8" d="M18.6,7.7h42.9c0.9,0,1.6,0.7,1.6,1.6c0,0,0,0,0,0v2.1c0,0.9-0.7,1.6-1.6,1.6H18.6c-0.9,0-1.6-0.7-1.6-1.6
				V9.2C17,8.4,17.7,7.7,18.6,7.7C18.6,7.7,18.6,7.7,18.6,7.7z"/>
			<line class="st8" x1="40" y1="38.8" x2="40" y2="41.1"/>
			<line class="st8" x1="40" y1="42.9" x2="40" y2="45.2"/>
			<line class="st8" x1="40" y1="47" x2="40" y2="49.2"/>
			<line class="st8" x1="40" y1="51" x2="40" y2="53.3"/>
			<line class="st8" x1="40" y1="55.1" x2="40" y2="57.3"/>
			<line class="st8" x1="40" y1="59.1" x2="40" y2="61.4"/>
		</g>
	</g>
</g>
<g transform="translate(-495.158 -455.014)">
	<path class="st10" d="M442.8,478c0,2.9-2,5.2-4.4,5.2s-4.4-2.3-4.4-5.2s2-5.2,4.4-5.2S442.8,475.1,442.8,478z"/>
	<path class="st11" d="M431.3,504.7c-1.7,0-3.1-1.4-3.1-3.1c0,0,0,0,0,0V489c0-1.7,1.4-3.1,3.1-3.1c0,0,0,0,0,0h14.3
		c1.7,0,3.1,1.4,3.1,3.1c0,0,0,0,0,0v12.5c0,1.7-1.4,3.1-3.1,3.1"/>
	<line class="st12" x1="432.5" y1="525.5" x2="432.5" y2="491.7"/>
	<line class="st12" x1="444.4" y1="491.7" x2="444.4" y2="525.5"/>
	<line class="st13" x1="438.5" y1="525.7" x2="438.5" y2="506.7"/>
	<path class="st10" d="M423.6,468c0,2.9-2,5.2-4.4,5.2s-4.4-2.3-4.4-5.2s2-5.2,4.4-5.2S423.6,465.1,423.6,468z"/>
	<path class="st14" d="M412.1,494.7c-1.7,0-3.1-1.4-3.1-3.1c0,0,0,0,0,0V479c0-1.7,1.4-3.1,3.1-3.1l0,0h14.3c1.7,0,3.1,1.4,3.1,3.1
		c0,0,0,0,0,0v4.8"/>
	<line class="st13" x1="413.3" y1="515.6" x2="413.3" y2="481.7"/>
	<line class="st13" x1="425.2" y1="481.7" x2="425.2" y2="515.6"/>
	<line class="st13" x1="419.2" y1="515.7" x2="419.2" y2="496.8"/>
	<path class="st10" d="M453.3,468c0,2.9,2,5.2,4.4,5.2s4.4-2.3,4.4-5.2s-2-5.2-4.4-5.2S453.3,465.1,453.3,468z"/>
	<path class="st14" d="M464.8,494.7c1.7,0,3.1-1.4,3.1-3.1V479c0-1.7-1.4-3.1-3.1-3.1h-14.3c-1.7,0-3.1,1.4-3.1,3.1l0,0v4.8"/>
	<line class="st13" x1="463.6" y1="515.6" x2="463.6" y2="481.7"/>
	<line class="st13" x1="451.7" y1="481.7" x2="451.7" y2="515.6"/>
	<line class="st13" x1="457.7" y1="515.7" x2="457.7" y2="496.8"/>
	<path class="st15" d="M464.2,504c6.6,2.4,10.7,5.7,10.7,9.4s-4.1,7-10.7,9.4s-15.7,3.9-25.8,3.9s-19.2-1.5-25.8-3.9
		s-10.7-5.7-10.7-9.4c0-3.7,4.1-7,10.7-9.4"/>
</g>
<g transform="translate(0 0)">
	<g>
		<defs>
			<rect id="SVGID_3_" x="108.8" y="10.9" width="63.5" height="57.6"/>
		</defs>
		<clipPath id="SVGID_4_">
			<use xlink:href="#SVGID_3_"  style="overflow:visible;"/>
		</clipPath>
		<g class="st16">
			<path class="st7" d="M171.1,39.5l-4.4-7l0.2-9.1c0,0,0-12.1-17.1-11.6c-2.1,0-4.2,0.3-6.2,0.8c-10.1,2.6-8.7,10.7-8.7,10.7v32.2
				l21.3,6.9v-9.9h6.6c2.5,0,3.6-2,3.6-4.6l0.6-6.1h2.7C171.4,41.8,171.9,40.7,171.1,39.5"/>
			<path class="st17" d="M171.1,39.5l-4.4-7l0.2-9.1c0,0,0-12.1-17.1-11.6c-2.1,0-4.2,0.3-6.2,0.8c-10.1,2.6-8.7,10.7-8.7,10.7v32.2
				l21.3,6.9v-9.9h6.6c2.5,0,3.6-2,3.6-4.6l0.6-6.1h2.7C171.4,41.8,171.9,40.7,171.1,39.5z"/>
			<path class="st7" d="M158.5,42.2l-4.4-7l0.3-9.1c0,0,0-12.1-17.1-11.6c-2.1,0-4.2,0.3-6.2,0.8c-10.1,2.6-8.7,10.7-8.7,10.7v32.2
				l21.3,6.9v-9.9h6.6c2.5,0,3.6-2,3.6-4.6l0.6-6.1h2.7C158.7,44.5,159.3,43.4,158.5,42.2"/>
			<path class="st17" d="M158.5,42.2l-4.4-7l0.3-9.1c0,0,0-12.1-17.1-11.6c-2.1,0-4.2,0.3-6.2,0.8c-10.1,2.6-8.7,10.7-8.7,10.7v32.2
				l21.3,6.9v-9.9h6.6c2.5,0,3.6-2,3.6-4.6l0.6-6.1h2.7C158.7,44.5,159.3,43.4,158.5,42.2z"/>
			<path class="st9" d="M145.8,44.9l-4.4-7l0.2-9.1c0,0,0-12.1-17.1-11.6c-2.1,0-4.2,0.3-6.2,0.8c-10.2,2.6-8.7,10.7-8.7,10.7v32.2
				l21.3,6.9v-9.9h6.6c2.5,0,3.6-2,3.6-4.6l0.6-6.1h2.7C146.1,47.2,146.6,46.1,145.8,44.9"/>
			<path class="st17" d="M145.8,44.9l-4.4-7l0.2-9.1c0,0,0-12.1-17.1-11.6c-2.1,0-4.2,0.3-6.2,0.8c-10.2,2.6-8.7,10.7-8.7,10.7v32.2
				l21.3,6.9v-9.9h6.6c2.5,0,3.6-2,3.6-4.6l0.6-6.1h2.7C146.1,47.2,146.6,46.1,145.8,44.9z"/>
		</g>
	</g>
</g>
<g transform="translate(0 0)">
	<g>
		<defs>
			<rect id="SVGID_5_" x="212.1" y="7.3" width="49.4" height="64.9"/>
		</defs>
		<clipPath id="SVGID_6_">
			<use xlink:href="#SVGID_5_"  style="overflow:visible;"/>
		</clipPath>
		<g class="st18">
			<path class="st19" d="M260.4,63.6c0,4.2-10.6,7.6-23.6,7.6s-23.6-3.4-23.6-7.6s10.6-7.6,23.6-7.6C249.9,56,260.4,59.4,260.4,63.6
				z"/>
			<path class="st7" d="M236.8,8.4L236.8,8.4c-0.4,0-21.5,0.6-20.7,20.1s20.3,31.4,20.7,31.7v0h0h0v0c0.4-0.2,20-12.2,20.7-31.7
				C258.3,9.1,237.2,8.4,236.8,8.4"/>
			<path class="st19" d="M236.8,8.4L236.8,8.4c-0.4,0-21.5,0.6-20.7,20.1s20.3,31.4,20.7,31.7v0h0h0v0c0.4-0.2,20-12.2,20.7-31.7
				C258.3,9.1,237.2,8.4,236.8,8.4z"/>
			<path class="st9" d="M246.1,27.8c0,5.1-4.1,9.3-9.3,9.3c-5.1,0-9.3-4.1-9.3-9.3c0-5.1,4.1-9.3,9.3-9.3c0,0,0,0,0,0
				C241.9,18.6,246.1,22.7,246.1,27.8C246.1,27.8,246.1,27.8,246.1,27.8"/>
			<path class="st19" d="M246.1,27.8c0,5.1-4.1,9.3-9.3,9.3c-5.1,0-9.3-4.1-9.3-9.3c0-5.1,4.1-9.3,9.3-9.3c0,0,0,0,0,0
				C241.9,18.6,246.1,22.7,246.1,27.8C246.1,27.8,246.1,27.8,246.1,27.8z"/>
		</g>
	</g>
</g>
</svg>
