<?xml version="1.0" encoding="utf-8"?>
<!-- Generator: Adobe Illustrator 25.2.0, SVG Export Plug-In . SVG Version: 6.00 Build 0)  -->
<svg version="1.1" id="레이어_1" xmlns="http://www.w3.org/2000/svg" xmlns:xlink="http://www.w3.org/1999/xlink" x="0px"
	 y="0px" viewBox="0 0 80 80" style="enable-background:new 0 0 80 80;" xml:space="preserve">
<style type="text/css">
	.st0{fill:none;}
	.st1{fill:#FFFFFF;stroke:#37588E;stroke-width:1.781;stroke-linecap:round;stroke-linejoin:round;}
	.st2{fill:#A9CCFF;stroke:#37588E;stroke-width:1.781;stroke-linecap:round;stroke-linejoin:round;}
	.st3{fill:none;stroke:#37588E;stroke-width:1.78;}
	.st4{fill:none;stroke:#37588E;stroke-width:1.78;stroke-linecap:round;stroke-linejoin:round;}
	.st5{fill:none;stroke:#37588E;stroke-width:1.782;}
	.st6{clip-path:url(#SVGID_2_);}
	.st7{fill:#FFFFFF;}
	.st8{fill:none;stroke:#37588E;stroke-width:1.781;stroke-linecap:round;stroke-linejoin:round;}
	.st9{fill:#A9CCFF;}
	.st10{fill:#FFFFFF;stroke:#37588E;stroke-width:2.074;stroke-linecap:round;stroke-linejoin:round;}
	.st11{fill:#A9CCFF;stroke:#37588E;stroke-width:2.074;stroke-linecap:round;stroke-linejoin:round;}
	.st12{fill:none;stroke:#37588E;stroke-width:2.075;stroke-linecap:round;stroke-linejoin:round;}
	.st13{fill:none;stroke:#37588E;stroke-width:2.075;stroke-linecap:round;}
	.st14{fill:none;stroke:#37588E;stroke-width:2.074;stroke-linecap:round;}
	.st15{fill:none;stroke:#37588E;stroke-width:2.074;stroke-linecap:round;stroke-linejoin:round;}
	.st16{clip-path:url(#SVGID_4_);}
	.st17{fill:none;stroke:#37588E;stroke-width:2;stroke-linecap:round;stroke-linejoin:round;}
	.st18{clip-path:url(#SVGID_6_);}
	.st19{fill:none;stroke:#37588E;stroke-width:2.216;stroke-linecap:round;stroke-linejoin:round;}
</style>
<rect x="-97.4" class="st0" width="80" height="80"/>
<rect y="-0.2" class="st0" width="80" height="80"/>
<rect x="96.7" y="-0.3" class="st0" width="80" height="80"/>
<rect x="197.2" y="-0.3" class="st0" width="80" height="80"/>
<rect x="293.5" y="-0.2" class="st0" width="80" height="80"/>
<g transform="translate(-315.725 -333.221)">
	<path class="st1" d="M233.9,343h48.9c4.4,0,8,3.6,8,8v40.3c0,4.4-3.6,8-8,8h-48.9c-4.4,0-8-3.6-8-8V351
		C225.9,346.6,229.5,343,233.9,343z"/>
	<path class="st1" d="M282.8,395.4h-48.9c-2.2,0-4-1.8-4-4V351c0-2.2,1.8-4,4-4h48.9c2.2,0,4,1.8,4,4v40.3
		C286.8,393.6,285,395.4,282.8,395.4L282.8,395.4z"/>
	<path class="st2" d="M218.9,391.8v3.6c0,4.4,3.6,8,8,8c0,0,0,0,0,0h62.9c4.4,0,8-3.6,8-8c0,0,0,0,0,0v-3.6H218.9z"/>
	<line class="st3" x1="254.6" y1="397.6" x2="264.8" y2="397.6"/>
	<path class="st1" d="M263.9,362.3c0,3.7-2.5,6.7-5.6,6.7s-5.6-3-5.6-6.7s2.5-6.7,5.6-6.7S263.9,358.6,263.9,362.3z"/>
	<path class="st1" d="M264.5,379.6v12.1h4.6v-14.9c0-3.2-2.6-5.8-5.8-5.8h-9.7c-3.2,0-5.8,2.6-5.8,5.8v14.9h4.6v-12.1"/>
	<line class="st4" x1="252.3" y1="391.7" x2="247.7" y2="391.7"/>
	<line class="st4" x1="269" y1="391.7" x2="264.5" y2="391.7"/>
	<path class="st1" d="M252.3,379.6v12.1h12.2v-12.1"/>
	<line class="st4" x1="264.5" y1="391.7" x2="252.3" y2="391.7"/>
	<path class="st2" d="M293.5,351.8h-20.9c-1.9,0-3.4,1.5-3.4,3.4c0,0,0,0,0,0v11.2c0,1.9,1.5,3.4,3.4,3.4h1.8v4.9l5.4-4.9h13.7
		c1.9,0,3.4-1.5,3.4-3.4v-11.2C296.8,353.4,295.3,351.8,293.5,351.8C293.5,351.8,293.5,351.8,293.5,351.8z"/>
	<line class="st5" x1="277.2" y1="359.8" x2="277.2" y2="362.5"/>
	<line class="st5" x1="283" y1="359.8" x2="283" y2="362.5"/>
	<line class="st5" x1="288.9" y1="359.8" x2="288.9" y2="362.5"/>
</g>
<g transform="translate(0 0)">
	<g>
		<defs>
			<rect id="SVGID_1_" x="112.8" y="6.8" width="47.8" height="65.9"/>
		</defs>
		<clipPath id="SVGID_2_">
			<use xlink:href="#SVGID_1_"  style="overflow:visible;"/>
		</clipPath>
		<g class="st6">
			<path class="st7" d="M156.2,20.7V10.3c0-0.2,0-0.5,0-0.7h-38.9c0,0.2,0,0.5,0,0.7v10.4c0,2.9,0.6,5.7,1.9,8.3h35.2
				C155.5,26.4,156.2,23.5,156.2,20.7"/>
			<path class="st8" d="M156.2,20.7V10.3c0-0.2,0-0.5,0-0.7h-38.9c0,0.2,0,0.5,0,0.7v10.4c0,2.9,0.6,5.7,1.9,8.3h35.2
				C155.5,26.4,156.2,23.5,156.2,20.7z"/>
			<path class="st7" d="M156.3,71.5c0-0.7-0.1-1.4-0.2-2.1c0,0.2,0,0.3,0,0.5h-38.9c0-0.2,0-0.3,0-0.5c-0.1,0.7-0.2,1.4-0.2,2.1
				L156.3,71.5z"/>
			<path class="st8" d="M156.3,71.5c0-0.7-0.1-1.4-0.2-2.1c0,0.2,0,0.3,0,0.5h-38.9c0-0.2,0-0.3,0-0.5c-0.1,0.7-0.2,1.4-0.2,2.1
				L156.3,71.5z"/>
			<path class="st9" d="M136.7,57.1c9.9,0,18.1,5.4,19.5,12.4c0-0.1,0-0.2,0-0.3V58.8c0-9.3-6.5-17.2-15.6-19.1
				c6-1.2,11.1-5.2,13.8-10.8h-35.2c2.6,5.6,7.7,9.6,13.8,10.8c-9.1,1.8-15.6,9.8-15.6,19.1v10.4c0,0.1,0,0.2,0,0.3
				C118.6,62.5,126.8,57.1,136.7,57.1"/>
			<path class="st8" d="M136.7,57.1c9.9,0,18.1,5.4,19.5,12.4c0-0.1,0-0.2,0-0.3V58.8c0-9.3-6.5-17.2-15.6-19.1
				c6-1.2,11.1-5.2,13.8-10.8h-35.2c2.6,5.6,7.7,9.6,13.8,10.8c-9.1,1.8-15.6,9.8-15.6,19.1v10.4c0,0.1,0,0.2,0,0.3
				C118.6,62.5,126.8,57.1,136.7,57.1z"/>
			<path class="st7" d="M156.1,69.9c0-0.2,0-0.3,0-0.5c-1.4-7-9.6-12.4-19.5-12.4s-18.1,5.4-19.5,12.4c0,0.2,0,0.3,0,0.5H156.1z"/>
			<path class="st8" d="M156.1,69.9c0-0.2,0-0.3,0-0.5c-1.4-7-9.6-12.4-19.5-12.4s-18.1,5.4-19.5,12.4c0,0.2,0,0.3,0,0.5H156.1z"/>
			<path class="st7" d="M115.3,66.6h42.9c0.9,0,1.6,0.7,1.6,1.6c0,0,0,0,0,0v2.1c0,0.9-0.7,1.6-1.6,1.6h-42.9
				c-0.9,0-1.6-0.7-1.6-1.6v-2.1C113.7,67.3,114.4,66.6,115.3,66.6C115.3,66.6,115.3,66.6,115.3,66.6z"/>
			<path class="st8" d="M115.3,66.6h42.9c0.9,0,1.6,0.7,1.6,1.6c0,0,0,0,0,0v2.1c0,0.9-0.7,1.6-1.6,1.6h-42.9
				c-0.9,0-1.6-0.7-1.6-1.6v-2.1C113.7,67.3,114.4,66.6,115.3,66.6C115.3,66.6,115.3,66.6,115.3,66.6z"/>
			<path class="st7" d="M115.3,7.7h42.9c0.9,0,1.6,0.7,1.6,1.6c0,0,0,0,0,0v2.1c0,0.9-0.7,1.6-1.6,1.6h-42.9c-0.9,0-1.6-0.7-1.6-1.6
				V9.2C113.7,8.4,114.4,7.7,115.3,7.7C115.3,7.7,115.3,7.7,115.3,7.7z"/>
			<path class="st8" d="M115.3,7.7h42.9c0.9,0,1.6,0.7,1.6,1.6c0,0,0,0,0,0v2.1c0,0.9-0.7,1.6-1.6,1.6h-42.9c-0.9,0-1.6-0.7-1.6-1.6
				V9.2C113.7,8.4,114.4,7.7,115.3,7.7C115.3,7.7,115.3,7.7,115.3,7.7z"/>
			<line class="st8" x1="136.7" y1="38.8" x2="136.7" y2="41.1"/>
			<line class="st8" x1="136.7" y1="42.9" x2="136.7" y2="45.2"/>
			<line class="st8" x1="136.7" y1="47" x2="136.7" y2="49.2"/>
			<line class="st8" x1="136.7" y1="51" x2="136.7" y2="53.3"/>
			<line class="st8" x1="136.7" y1="55.1" x2="136.7" y2="57.3"/>
			<line class="st8" x1="136.7" y1="59.1" x2="136.7" y2="61.4"/>
		</g>
	</g>
</g>
<g transform="translate(-495.158 -455.014)">
	<path class="st10" d="M539.5,478c0,2.9-2,5.2-4.4,5.2s-4.4-2.3-4.4-5.2s2-5.2,4.4-5.2S539.5,475.1,539.5,478z"/>
	<path class="st11" d="M528,504.7c-1.7,0-3.1-1.4-3.1-3.1c0,0,0,0,0,0V489c0-1.7,1.4-3.1,3.1-3.1c0,0,0,0,0,0h14.3
		c1.7,0,3.1,1.4,3.1,3.1c0,0,0,0,0,0v12.5c0,1.7-1.4,3.1-3.1,3.1"/>
	<line class="st12" x1="529.2" y1="525.5" x2="529.2" y2="491.7"/>
	<line class="st12" x1="541.1" y1="491.7" x2="541.1" y2="525.5"/>
	<line class="st13" x1="535.2" y1="525.7" x2="535.2" y2="506.7"/>
	<path class="st10" d="M520.3,468c0,2.9-2,5.2-4.4,5.2s-4.4-2.3-4.4-5.2s2-5.2,4.4-5.2S520.3,465.1,520.3,468z"/>
	<path class="st14" d="M508.8,494.7c-1.7,0-3.1-1.4-3.1-3.1c0,0,0,0,0,0V479c0-1.7,1.4-3.1,3.1-3.1l0,0h14.3c1.7,0,3.1,1.4,3.1,3.1
		c0,0,0,0,0,0v4.8"/>
	<line class="st13" x1="510" y1="515.6" x2="510" y2="481.7"/>
	<line class="st13" x1="521.9" y1="481.7" x2="521.9" y2="515.6"/>
	<line class="st13" x1="515.9" y1="515.7" x2="515.9" y2="496.8"/>
	<path class="st10" d="M550,468c0,2.9,2,5.2,4.4,5.2s4.4-2.3,4.4-5.2s-2-5.2-4.4-5.2S550,465.1,550,468z"/>
	<path class="st14" d="M561.5,494.7c1.7,0,3.1-1.4,3.1-3.1V479c0-1.7-1.4-3.1-3.1-3.1h-14.3c-1.7,0-3.1,1.4-3.1,3.1l0,0v4.8"/>
	<line class="st13" x1="560.3" y1="515.6" x2="560.3" y2="481.7"/>
	<line class="st13" x1="548.4" y1="481.7" x2="548.4" y2="515.6"/>
	<line class="st13" x1="554.4" y1="515.7" x2="554.4" y2="496.8"/>
	<path class="st15" d="M560.9,504c6.6,2.4,10.7,5.7,10.7,9.4s-4.1,7-10.7,9.4s-15.7,3.9-25.8,3.9s-19.2-1.5-25.8-3.9
		c-6.6-2.4-10.7-5.7-10.7-9.4c0-3.7,4.1-7,10.7-9.4"/>
</g>
<g transform="translate(0 0)">
	<g>
		<defs>
			<rect id="SVGID_3_" x="205.5" y="10.9" width="63.5" height="57.6"/>
		</defs>
		<clipPath id="SVGID_4_">
			<use xlink:href="#SVGID_3_"  style="overflow:visible;"/>
		</clipPath>
		<g class="st16">
			<path class="st7" d="M267.8,39.5l-4.4-7l0.2-9.1c0,0,0-12.1-17.1-11.6c-2.1,0-4.2,0.3-6.2,0.8c-10.1,2.6-8.7,10.7-8.7,10.7v32.2
				l21.3,6.9v-9.9h6.6c2.5,0,3.6-2,3.6-4.6l0.6-6.1h2.7C268.1,41.8,268.6,40.7,267.8,39.5"/>
			<path class="st17" d="M267.8,39.5l-4.4-7l0.2-9.1c0,0,0-12.1-17.1-11.6c-2.1,0-4.2,0.3-6.2,0.8c-10.1,2.6-8.7,10.7-8.7,10.7v32.2
				l21.3,6.9v-9.9h6.6c2.5,0,3.6-2,3.6-4.6l0.6-6.1h2.7C268.1,41.8,268.6,40.7,267.8,39.5z"/>
			<path class="st7" d="M255.2,42.2l-4.4-7l0.3-9.1c0,0,0-12.1-17.1-11.6c-2.1,0-4.2,0.3-6.2,0.8C217.6,17.9,219,26,219,26v32.2
				l21.3,6.9v-9.9h6.6c2.5,0,3.6-2,3.6-4.6l0.6-6.1h2.7C255.4,44.5,256,43.4,255.2,42.2"/>
			<path class="st17" d="M255.2,42.2l-4.4-7l0.3-9.1c0,0,0-12.1-17.1-11.6c-2.1,0-4.2,0.3-6.2,0.8C217.6,17.9,219,26,219,26v32.2
				l21.3,6.9v-9.9h6.6c2.5,0,3.6-2,3.6-4.6l0.6-6.1h2.7C255.4,44.5,256,43.4,255.2,42.2z"/>
			<path class="st9" d="M242.5,44.9l-4.4-7l0.2-9.1c0,0,0-12.1-17.1-11.6c-2.1,0-4.2,0.3-6.2,0.8c-10.2,2.6-8.7,10.7-8.7,10.7v32.2
				l21.3,6.9v-9.9h6.6c2.5,0,3.6-2,3.6-4.6l0.6-6.1h2.7C242.8,47.2,243.3,46.1,242.5,44.9"/>
			<path class="st17" d="M242.5,44.9l-4.4-7l0.2-9.1c0,0,0-12.1-17.1-11.6c-2.1,0-4.2,0.3-6.2,0.8c-10.2,2.6-8.7,10.7-8.7,10.7v32.2
				l21.3,6.9v-9.9h6.6c2.5,0,3.6-2,3.6-4.6l0.6-6.1h2.7C242.8,47.2,243.3,46.1,242.5,44.9z"/>
		</g>
	</g>
</g>
<g transform="translate(0 0)">
	<g>
		<defs>
			<rect id="SVGID_5_" x="308.8" y="7.3" width="49.4" height="64.9"/>
		</defs>
		<clipPath id="SVGID_6_">
			<use xlink:href="#SVGID_5_"  style="overflow:visible;"/>
		</clipPath>
		<g class="st18">
			<path class="st19" d="M357.1,63.6c0,4.2-10.6,7.6-23.6,7.6c-13,0-23.6-3.4-23.6-7.6s10.6-7.6,23.6-7.6S357.1,59.4,357.1,63.6z"/>
			<path class="st7" d="M333.5,8.4L333.5,8.4c-0.4,0-21.5,0.6-20.7,20.1c0.7,19.5,20.3,31.4,20.7,31.7v0h0h0v0
				c0.4-0.2,20-12.2,20.7-31.7S333.9,8.4,333.5,8.4"/>
			<path class="st19" d="M333.5,8.4L333.5,8.4c-0.4,0-21.5,0.6-20.7,20.1c0.7,19.5,20.3,31.4,20.7,31.7v0h0h0v0
				c0.4-0.2,20-12.2,20.7-31.7S333.9,8.4,333.5,8.4z"/>
			<path class="st9" d="M342.8,27.8c0,5.1-4.1,9.3-9.3,9.3s-9.3-4.1-9.3-9.3c0-5.1,4.1-9.3,9.3-9.3c0,0,0,0,0,0
				C338.7,18.6,342.8,22.7,342.8,27.8C342.8,27.8,342.8,27.8,342.8,27.8"/>
			<path class="st19" d="M342.8,27.8c0,5.1-4.1,9.3-9.3,9.3s-9.3-4.1-9.3-9.3c0-5.1,4.1-9.3,9.3-9.3c0,0,0,0,0,0
				C338.7,18.6,342.8,22.7,342.8,27.8C342.8,27.8,342.8,27.8,342.8,27.8z"/>
		</g>
	</g>
</g>
</svg>
