<?xml version="1.0" encoding="utf-8"?>
<!-- Generator: Adobe Illustrator 25.2.0, SVG Export Plug-In . SVG Version: 6.00 Build 0)  -->
<svg version="1.1" id="레이어_1" xmlns="http://www.w3.org/2000/svg" xmlns:xlink="http://www.w3.org/1999/xlink" x="0px"
	 y="0px" viewBox="0 0 80 80" style="enable-background:new 0 0 80 80;" xml:space="preserve">
<style type="text/css">
	.st0{clip-path:url(#SVGID_2_);}
	.st1{clip-path:url(#SVGID_4_);}
	.st2{fill:#FFFFFF;}
	.st3{fill:none;stroke:#37588E;stroke-width:2;stroke-linecap:round;stroke-linejoin:round;}
	.st4{fill:#A9CCFF;}
</style>
<g>
	<defs>
		<rect id="SVGID_1_" width="80" height="80"/>
	</defs>
	<clipPath id="SVGID_2_">
		<use xlink:href="#SVGID_1_"  style="overflow:visible;"/>
	</clipPath>
	<g transform="translate(0 0)" class="st0">
		<g>
			<defs>
				<rect id="SVGID_3_" x="8.2" y="11.2" width="63.5" height="57.6"/>
			</defs>
			<clipPath id="SVGID_4_">
				<use xlink:href="#SVGID_3_"  style="overflow:visible;"/>
			</clipPath>
			<g class="st1">
				<path class="st2" d="M70.6,39.7l-4.4-7l0.2-9.1c0,0,0-12.1-17.1-11.6c-2.1,0-4.2,0.3-6.2,0.8c-10.1,2.6-8.7,10.7-8.7,10.7v32.2
					l21.3,6.9v-9.9h6.6c2.5,0,3.6-2,3.6-4.6l0.6-6.1h2.7C70.8,42.1,71.4,41,70.6,39.7"/>
				<path class="st3" d="M70.6,39.7l-4.4-7l0.2-9.1c0,0,0-12.1-17.1-11.6c-2.1,0-4.2,0.3-6.2,0.8c-10.1,2.6-8.7,10.7-8.7,10.7v32.2
					l21.3,6.9v-9.9h6.6c2.5,0,3.6-2,3.6-4.6l0.6-6.1h2.7C70.8,42.1,71.4,41,70.6,39.7z"/>
				<path class="st2" d="M57.9,42.4l-4.4-7l0.3-9.1c0,0,0-12.1-17.1-11.6c-2.1,0-4.2,0.3-6.2,0.8c-10.1,2.6-8.7,10.7-8.7,10.7v32.2
					l21.3,6.9v-9.9h6.6c2.5,0,3.6-2,3.6-4.6l0.6-6.1h2.7C58.2,44.7,58.8,43.7,57.9,42.4"/>
				<path class="st3" d="M57.9,42.4l-4.4-7l0.3-9.1c0,0,0-12.1-17.1-11.6c-2.1,0-4.2,0.3-6.2,0.8c-10.1,2.6-8.7,10.7-8.7,10.7v32.2
					l21.3,6.9v-9.9h6.6c2.5,0,3.6-2,3.6-4.6l0.6-6.1h2.7C58.2,44.7,58.7,43.7,57.9,42.4z"/>
				<path class="st4" d="M45.3,45.1l-4.4-7l0.2-9.1c0,0,0-12.1-17.1-11.6c-2.1,0-4.2,0.3-6.2,0.8C7.7,20.9,9.1,28.9,9.1,28.9v32.2
					L30.5,68v-9.9H37c2.5,0,3.6-2,3.6-4.6l0.6-6.1H44C45.5,47.4,46.1,46.4,45.3,45.1"/>
				<path class="st3" d="M45.3,45.1l-4.4-7l0.2-9.1c0,0,0-12.1-17.1-11.6c-2.1,0-4.2,0.3-6.2,0.8C7.7,20.9,9.1,28.9,9.1,28.9v32.2
					L30.5,68v-9.9H37c2.5,0,3.6-2,3.6-4.6l0.6-6.1H44C45.5,47.4,46.1,46.4,45.3,45.1z"/>
			</g>
		</g>
	</g>
</g>
</svg>
