<?xml version="1.0" encoding="utf-8"?>
<!-- Generator: Adobe Illustrator 25.2.0, SVG Export Plug-In . SVG Version: 6.00 Build 0)  -->
<svg version="1.1" id="레이어_1" xmlns="http://www.w3.org/2000/svg" xmlns:xlink="http://www.w3.org/1999/xlink" x="0px"
	 y="0px" viewBox="0 0 73.8 41.7" style="enable-background:new 0 0 73.8 41.7;" xml:space="preserve">
<style type="text/css">
	.st0{fill:none;stroke:#333333;stroke-width:2;stroke-linecap:round;stroke-linejoin:round;}
	.st1{fill:none;stroke:#333333;stroke-width:2;}
</style>
<g transform="translate(-666 -130.545)">
	<g transform="translate(667 131.72)">
		<path class="st0" d="M71.8,9.3L48.7,0H23.1L0,9.3l7.6,16.9l-0.1,0.1l0.9,6c0,0,4.1,10.9,16.2,6.1c0.2-0.2,0.5-0.3,0.7-0.4
			c1.4-0.8,4.7-2.3,10.4-2.4c5.7,0.1,9,1.6,10.4,2.4c0.2,0.1,0.5,0.3,0.7,0.4C58.9,43.1,63,32.2,63,32.2l1.2-6.1l0,0l0.1,0L71.8,9.3
			z"/>
		<path class="st0" d="M7.6,26.1c0,0,24.1-10,56.6,0"/>
		<line class="st0" x1="23.1" y1="0" x2="27.4" y2="22"/>
		<line class="st0" x1="48.4" y1="0" x2="44" y2="22"/>
	</g>
	<path class="st1" d="M707.8,146.2c0,2.7-2.2,3.1-4.9,3.1l0,0c-2.7,0-4.9-0.4-4.9-3.1v-5.1c0-2.7,2.2-4.9,4.9-4.9l0,0l0,0
		c2.7,0,4.9,2.2,4.9,4.9v0V146.2z"/>
</g>
</svg>
