<?xml version="1.0" encoding="utf-8"?>
<!-- Generator: Adobe Illustrator 25.2.0, SVG Export Plug-In . SVG Version: 6.00 Build 0)  -->
<svg version="1.1" id="레이어_1" xmlns="http://www.w3.org/2000/svg" xmlns:xlink="http://www.w3.org/1999/xlink" x="0px"
	 y="0px" viewBox="0 0 48 44.5" style="enable-background:new 0 0 48 44.5;" xml:space="preserve">
<style type="text/css">
	.st0{fill:none;stroke:#333333;stroke-width:2;stroke-linecap:round;stroke-linejoin:round;}
	.st1{fill:#FFFFFF;stroke:#333333;stroke-width:2;stroke-linecap:round;stroke-linejoin:round;}
	.st2{fill:none;stroke:#333333;stroke-width:2;stroke-linejoin:round;}
</style>
<g transform="translate(-691.141 -341.153)">
	<path class="st0" d="M731.1,374.4v-32.2h-38.9v33c0,4.2,2.5,7.9,6.4,9.5h27.8"/>
	<g transform="translate(701.977 374.431)">
		<path class="st0" d="M6.4,0v0.7c0,4.2-2.5,7.9-6.4,9.5h29.8c3.9-1.6,6.4-5.4,6.4-9.5V0H6.4z"/>
	</g>
	<g transform="translate(697.705 347.32)">
		<rect x="0" y="0" class="st1" width="4.8" height="4.8"/>
		<line class="st2" x1="6.8" y1="2.4" x2="28.6" y2="2.4"/>
	</g>
	<g transform="translate(697.705 355.269)">
		<rect x="0" y="0" class="st0" width="4.8" height="4.8"/>
		<line class="st2" x1="6.8" y1="2.4" x2="28.6" y2="2.4"/>
	</g>
	<g transform="translate(697.705 363.217)">
		<rect x="0" y="0" class="st0" width="4.8" height="4.8"/>
		<line class="st2" x1="6.8" y1="2.4" x2="28.6" y2="2.4"/>
	</g>
</g>
</svg>
