<svg xmlns="http://www.w3.org/2000/svg" width="60.146" height="46.652" viewBox="0 0 60.146 46.652"><defs><style>.a{fill:#333;stroke:#333;stroke-width:0.5px;}</style></defs><g transform="translate(-142.89 -156.639)"><path class="a" d="M172.962,203.041c-14.491,0-24.612-4.155-24.612-10.1a.75.75,0,0,1,1.5,0c0,4.172,8.1,8.6,23.112,8.6s23.113-4.433,23.113-8.6a.75.75,0,1,1,1.5,0C197.575,198.886,187.454,203.041,172.962,203.041Z"/><path class="a" d="M196.825,193.686H149.1a.75.75,0,0,1-.75-.75V181.879a.75.75,0,0,1,.75-.75h47.725a.75.75,0,0,1,.75.75v11.057A.75.75,0,0,1,196.825,193.686Zm-46.975-1.5h46.225v-9.557H149.85Z"/><path class="a" d="M196.825,182.629H149.1a.752.752,0,0,1-.668-.408l-4.617-9.03a5.892,5.892,0,0,1,3.487-8.307l25.437-7.96a.757.757,0,0,1,.447,0l25.437,7.96h0a5.895,5.895,0,0,1,3.488,8.307l-4.618,9.03A.751.751,0,0,1,196.825,182.629Zm-47.266-1.5h46.807l4.409-8.622a4.393,4.393,0,0,0-2.6-6.191l-25.214-7.89-25.213,7.89a4.391,4.391,0,0,0-2.6,6.191Z"/><path class="a" d="M172.962,169.553a3.254,3.254,0,1,1,3.255-3.255A3.258,3.258,0,0,1,172.962,169.553Zm0-5.009a1.754,1.754,0,1,0,1.755,1.754A1.756,1.756,0,0,0,172.962,164.544Z"/><path class="a" d="M172.962,176.887a6.811,6.811,0,0,1-6.8-6.8.75.75,0,0,1,1.5,0,5.3,5.3,0,1,0,10.608,0,.75.75,0,0,1,1.5,0A6.811,6.811,0,0,1,172.962,176.887Z"/><path class="a" d="M172.962,176.887a.75.75,0,0,1-.75-.75V168.8a.75.75,0,0,1,1.5,0v7.334A.75.75,0,0,1,172.962,176.887Z"/><path class="a" d="M159.365,190.614H149.1a.75.75,0,0,1,0-1.5h10.265a.75.75,0,0,1,0,1.5Z"/><path class="a" d="M154.74,186.954H149.1a.75.75,0,0,1,0-1.5h5.64a.75.75,0,0,1,0,1.5Z"/></g></svg>