<?xml version="1.0" encoding="utf-8"?>
<!-- Generator: Adobe Illustrator 25.2.0, SVG Export Plug-In . SVG Version: 6.00 Build 0)  -->
<svg version="1.1" id="레이어_1" xmlns="http://www.w3.org/2000/svg" xmlns:xlink="http://www.w3.org/1999/xlink" x="0px"
	 y="0px" viewBox="0 0 47.6 51.4" style="enable-background:new 0 0 47.6 51.4;" xml:space="preserve">
<style type="text/css">
	.st0{fill:none;stroke:#333333;stroke-width:2;stroke-linecap:round;stroke-linejoin:round;}
	.st1{fill:none;stroke:#333333;stroke-width:2;stroke-linecap:round;}
</style>
<g transform="translate(-454.439 -450.949)">
	<path class="st0" d="M490.1,453.2c-3.6-2.3-8.4-1.2-10.7,2.4l-0.7,1.1l-0.7-1.1c-2.3-3.6-7.1-4.7-10.7-2.4c-3.6,2.3-5,7.3-2.4,10.7
		c0,0,13.7,15.1,13.8,15.1s13.8-15.1,13.8-15.1C495.3,460.2,493.7,455.4,490.1,453.2z"/>
	<g transform="translate(455.439 468.274)">
		<g transform="translate(24.854)">
			<path class="st1" d="M0,33.1v-7.8c-0.2-2.3,0.8-4.5,2.6-5.8c3.2-2.2,6.2-4.2,9-7.5s3.8-1.3,3.8-1.3c0.9-2,1.4-4.2,1.5-6.5
				C17,0.8,17.9,0,18.8,0s1.9,1.3,1.9,4.3s-0.1,8.1-1,10.9c-1.2,3.1-3.1,5.9-5.6,8.2c-2.4,2-4.5,3.1-4.5,5.2V33"/>
			<path class="st1" d="M15.5,10.6c0,0,1.2,1.5-2.4,5.9c-3.7,4.3-4.8,4.9-4.8,4.9"/>
		</g>
		<path class="st1" d="M20.7,33.1v-7.8c0.2-2.3-0.8-4.5-2.6-5.8c-3.2-2.2-6.2-4.2-9-7.5s-3.8-1.3-3.8-1.3c-0.9-2-1.4-4.2-1.5-6.5
			C3.7,0.8,2.8,0,1.8,0S0,1.3,0,4.3s0.1,8.1,1,10.9c1.2,3.1,3.1,5.9,5.6,8.2c2.4,2,4.5,3.1,4.5,5.2V33"/>
		<path class="st1" d="M5.2,10.6c0,0-1.2,1.5,2.4,5.9c3.7,4.3,4.8,4.9,4.8,4.9"/>
	</g>
</g>
</svg>
