<?xml version="1.0" encoding="utf-8"?>
<!-- Generator: Adobe Illustrator 25.2.0, SVG Export Plug-In . SVG Version: 6.00 Build 0)  -->
<svg version="1.1" id="레이어_1" xmlns="http://www.w3.org/2000/svg" xmlns:xlink="http://www.w3.org/1999/xlink" x="0px"
	 y="0px" viewBox="0 0 111.7 55.9" style="enable-background:new 0 0 111.7 55.9;" xml:space="preserve">
<style type="text/css">
	.st0{fill:none;stroke:#3E4545;stroke-width:5;stroke-linecap:round;stroke-linejoin:round;}
	.st1{fill:none;stroke:#333333;stroke-width:2;stroke-linecap:round;stroke-linejoin:round;}
	.st2{fill:#333333;}
	.st3{fill:none;stroke:#333333;stroke-width:1.5;stroke-linecap:round;stroke-linejoin:round;}
</style>
<g transform="translate(-325.175 -471.373)">
	<path class="st0" d="M389.9,526.2"/>
	<g transform="translate(326.185 472.373)">
		<path class="st1" d="M7.5,26.6c-3,0.3-5.3,2.9-5,6c0.3,3,2.9,5.3,6,5c0.1,0,0.2,0,0.3,0c2.9,9.5,10.2,16.3,18.8,16.3
			s15.9-6.8,18.8-16.3c3,0.4,5.8-1.7,6.2-4.7s-1.7-5.8-4.7-6.2c-0.1,0-0.1,0-0.2,0"/>
		<circle class="st2" cx="18.9" cy="33.5" r="2.4"/>
		<circle class="st2" cx="36.1" cy="33.5" r="2.4"/>
		<line class="st3" x1="16.2" y1="28.4" x2="21.6" y2="28.4"/>
		<line class="st3" x1="33.5" y1="28.4" x2="38.8" y2="28.4"/>
		<path class="st1" d="M40,20.9c1,1.6,2.2,3,3.7,4.1c0.8,0.6,1.6,1,2.6,1.3c0.8,0.3,1.6,0,2.2-0.7c0.2-0.5,0.2-1,0.1-1.5
			c-0.1-0.8-0.2-1.3-0.3-2.1"/>
		<path class="st1" d="M52,14.2c-0.4-5.1-3.2-9.7-7.6-12.5c-2.6-1.6-6.4-1.7-9.3-1.7c-3.5-0.1-7,0.3-10.4,1C16.3,3,8,7.2,2.9,14.5
			C1,17.2-1.7,22.8,1.4,25.8c1.6,1.5,4.1,1.2,6.2,0.5c2.1-0.8,4.1-1.9,5.9-3.3c0.8-0.8,1.8-1.4,2.8-2c0.8-0.1,1.6-0.1,2.3,0
			c1.8-0.1,3.6-0.1,5.4-0.2c7.1-0.2,14.4-0.3,21.5,0.8c1.7,0.4,3.4,0.4,5.1,0.1l0.8-3.8l-0.1,0c0.3-0.4,0.5-0.8,0.7-1.3
			C52,15.8,52.1,15,52,14.2z"/>
		<g transform="translate(41.212 12.107)">
			<ellipse class="st2" cx="3" cy="1.7" rx="1.2" ry="1.1"/>
			<ellipse class="st2" cx="3" cy="1.7" rx="1" ry="0.9"/>
			<path class="st2" d="M2.5,4.1L2.5,4.1C2.5,4,2.4,3.9,2.3,3.8c0,0,0-0.1,0-0.1C2.1,3.4,2.3,3,2,2.7C1.9,2.6,1.7,2.6,1.6,2.6
				c0-0.2,0-0.3-0.1-0.4C1.4,2.1,1.3,2,1.1,2.1c0,0,0,0,0,0l0,0c0.2-0.1,0.3-0.6,0.1-0.7c0,0-0.1,0-0.1,0C1.3,1.2,1.4,1,1.5,0.8
				c0-0.1,0-0.1-0.1-0.1c0,0,0,0,0,0c0.1-0.1,0.2-0.1,0.3-0.2s0-0.2-0.1-0.2c-0.1,0-0.2,0-0.3,0.1c0-0.1,0.1-0.2,0.1-0.2
				c0-0.1,0-0.1-0.1-0.1c0,0-0.1,0-0.1,0C1.1,0.1,0.9,0.4,0.9,0.6C0.9,0.5,0.7,0.5,0.6,0.5c0,0-0.1,0-0.1,0.1C0.4,0.8,0.4,1,0.5,1.2
				c0,0.1,0,0.1,0.1,0.2c-0.2-0.1-0.4,0-0.5,0.2c0,0,0,0.1,0,0.1C0,2,0.3,2.2,0.5,2.4c0.1,0.1,0.2,0.1,0.3,0.2c0,0,0,0-0.1,0
				c-0.2,0-0.4,0.1-0.4,0.3c0,0.1,0,0.1,0,0.2c0.1,0.3,0.5,0.4,0.8,0.5c0.1,0,0.2,0,0.2,0.1c-0.1,0-0.2,0-0.3,0.1c0,0,0,0,0,0
				c0,0-0.1,0.1-0.1,0.1C0.8,3.9,1,4.2,1.2,4.2c0.4,0.1,0.9-0.2,1.2,0C2.6,4.3,2.7,4.2,2.5,4.1z"/>
			<path class="st2" d="M3.5,4.3c0.4-0.2,0.8,0.1,1.2,0C5,4.2,5.2,3.9,5,3.7c0,0-0.1-0.1-0.1-0.1c0,0,0,0,0,0
				c-0.1,0-0.2-0.1-0.3-0.1c0.1,0,0.2,0,0.2-0.1C5.1,3.4,5.5,3.3,5.6,3c0.1-0.2,0-0.4-0.2-0.4c-0.1,0-0.1,0-0.2,0c0,0,0,0-0.1,0
				c0.1-0.1,0.2-0.1,0.3-0.2C5.7,2.2,6,2,6,1.7c0-0.2-0.2-0.4-0.4-0.3c-0.1,0-0.1,0-0.1,0c0-0.1,0-0.1,0.1-0.2
				C5.5,1,5.5,0.8,5.4,0.6C5.3,0.5,5.2,0.5,5.1,0.5c0,0-0.1,0-0.1,0.1C5,0.4,4.9,0.1,4.7,0c-0.1,0-0.1,0-0.2,0c0,0,0,0.1,0,0.1
				c0,0.1,0,0.2,0.1,0.2c-0.1,0-0.2-0.1-0.3-0.1c-0.1,0-0.2,0.1-0.1,0.2s0.2,0.1,0.3,0.2c-0.1,0-0.1,0.1-0.1,0.1c0,0,0,0,0,0
				c0,0.2,0.2,0.4,0.4,0.5c0,0-0.1,0-0.1,0C4.5,1.5,4.6,1.9,4.8,2.1l0,0C4.7,2,4.5,2.1,4.4,2.2c0,0,0,0,0,0C4.4,2.3,4.4,2.5,4.4,2.6
				c-0.2-0.1-0.3,0-0.4,0.1C3.7,3,3.9,3.4,3.7,3.7c0,0,0,0.1,0,0.1C3.6,3.9,3.5,4,3.4,4.1l0,0C3.3,4.2,3.4,4.3,3.5,4.3z"/>
		</g>
		<path class="st1" d="M31.9,41.4h-8.5c0,0,0.6,3.7,4.2,3.7S31.9,41.4,31.9,41.4z"/>
		<line class="st3" x1="7.5" y1="26.6" x2="9.3" y2="27.5"/>
		<line class="st3" x1="47.6" y1="26.6" x2="45.4" y2="27.5"/>
	</g>
	<g transform="translate(382.423 472.744)">
		<path class="st1" d="M50.2,36.5c3.5,2.5,4.3,7.4,1.8,10.9c-2.5,3.5-7.4,4.3-10.9,1.8c-0.3-0.2-0.7-0.5-1-0.8"/>
		<path class="st1" d="M7.5,26.2c-3,0.3-5.3,2.9-5,6c0.3,3,2.9,5.3,6,5c0.1,0,0.2,0,0.3,0c2.9,9.5,10.2,16.3,18.8,16.3
			c8.6,0,15.9-6.8,18.8-16.3c3,0.4,5.8-1.7,6.2-4.7s-1.7-5.8-4.7-6.2c-0.1,0-0.1,0-0.2,0"/>
		<circle class="st2" cx="18.9" cy="33.1" r="2.4"/>
		<circle class="st2" cx="36.1" cy="33.1" r="2.4"/>
		<line class="st3" x1="16.2" y1="28" x2="21.6" y2="28"/>
		<line class="st3" x1="33.5" y1="28" x2="38.8" y2="28"/>
		<line class="st3" x1="16.2" y1="31.1" x2="18" y2="32.4"/>
		<line class="st3" x1="38.8" y1="31.1" x2="37.1" y2="32.4"/>
		<path class="st1" d="M40,21.1c1,1.5,2.3,2.8,3.7,3.9c0.8,0.6,1.6,1,2.6,1.3c0.8,0.3,1.6,0,2.2-0.7c0.2-0.5,0.2-1,0.1-1.5
			c-0.1-0.7-0.2-1.5-0.3-2.2"/>
		<path class="st1" d="M52,14.2c-0.4-5.1-3.2-9.7-7.6-12.5c-2.6-1.6-6.4-1.7-9.3-1.7c-3.5-0.1-7,0.3-10.4,1C16.3,3,8,7.2,2.9,14.5
			C1,17.2-1.7,22.8,1.3,25.8c1.6,1.5,4.1,1.2,6.2,0.5c2.1-0.8,4.1-1.9,5.9-3.3c0.8-0.8,1.8-1.4,2.8-2c0.8-0.1,1.6-0.1,2.3,0
			c1.8-0.1,3.6-0.1,5.4-0.2c7.1-0.2,14.4-0.3,21.5,0.8c1.7,0.4,3.4,0.4,5.1,0.1l0.8-3.8l-0.1,0c0.3-0.4,0.5-0.8,0.7-1.3
			C52,15.8,52.1,15,52,14.2z"/>
		<g transform="translate(41.212 11.736)">
			<ellipse class="st2" cx="3" cy="1.7" rx="1.2" ry="1.1"/>
			<ellipse class="st2" cx="3" cy="1.7" rx="1" ry="0.9"/>
			<path class="st2" d="M2.5,4.1L2.5,4.1C2.5,4,2.4,3.9,2.3,3.8c0,0,0-0.1,0-0.1C2.1,3.4,2.3,3,2,2.7C1.9,2.6,1.7,2.6,1.6,2.6
				c0-0.2,0-0.3-0.1-0.4C1.4,2.1,1.3,2,1.1,2.1c0,0,0,0,0,0l0,0c0.2-0.1,0.3-0.6,0.1-0.7c0,0-0.1,0-0.1,0C1.3,1.2,1.4,1,1.5,0.8
				c0-0.1,0-0.1-0.1-0.1c0,0,0,0,0,0c0.1-0.1,0.2-0.1,0.3-0.2s0-0.2-0.1-0.2c-0.1,0-0.2,0-0.3,0.1c0-0.1,0.1-0.2,0.1-0.2
				c0-0.1,0-0.1-0.1-0.1c0,0-0.1,0-0.1,0C1.1,0.1,0.9,0.4,0.9,0.6C0.9,0.5,0.7,0.5,0.6,0.5c0,0-0.1,0-0.1,0.1C0.4,0.8,0.4,1,0.5,1.2
				c0,0.1,0,0.1,0.1,0.2c-0.2-0.1-0.4,0-0.5,0.2c0,0,0,0.1,0,0.1C0,2,0.3,2.2,0.5,2.4c0.1,0.1,0.2,0.1,0.3,0.2c0,0,0,0-0.1,0
				c-0.2,0-0.4,0.1-0.4,0.3c0,0.1,0,0.1,0,0.2c0.1,0.3,0.5,0.4,0.8,0.5c0.1,0,0.2,0,0.2,0.1c-0.1,0-0.2,0-0.3,0.1c0,0,0,0,0,0
				c0,0-0.1,0.1-0.1,0.1C0.8,3.9,1,4.2,1.2,4.2c0.4,0.1,0.9-0.2,1.2,0C2.6,4.3,2.7,4.2,2.5,4.1z"/>
			<path class="st2" d="M3.5,4.3c0.4-0.2,0.8,0.1,1.2,0C5,4.2,5.2,3.9,5,3.7c0,0-0.1-0.1-0.1-0.1c0,0,0,0,0,0
				c-0.1,0-0.2-0.1-0.3-0.1c0.1,0,0.2,0,0.2-0.1C5.1,3.4,5.5,3.3,5.6,3c0.1-0.2,0-0.4-0.2-0.4c-0.1,0-0.1,0-0.2,0c0,0,0,0-0.1,0
				c0.1-0.1,0.2-0.1,0.3-0.2C5.7,2.2,6,2,5.9,1.7c0-0.2-0.2-0.4-0.4-0.3c-0.1,0-0.1,0-0.1,0c0-0.1,0-0.1,0.1-0.2
				C5.5,1,5.5,0.8,5.4,0.6C5.3,0.5,5.2,0.5,5.1,0.5c0,0-0.1,0-0.1,0.1C5,0.4,4.9,0.1,4.7,0c-0.1,0-0.1,0-0.2,0c0,0,0,0.1,0,0.1
				c0,0.1,0,0.2,0.1,0.2c-0.1,0-0.2-0.1-0.3-0.1c-0.1,0-0.2,0.1-0.1,0.2s0.2,0.1,0.3,0.2c-0.1,0-0.1,0.1-0.1,0.1c0,0,0,0,0,0
				c0,0.2,0.2,0.4,0.4,0.5c0,0-0.1,0-0.1,0C4.5,1.5,4.6,1.9,4.8,2.1l0,0C4.7,2,4.5,2.1,4.4,2.2c0,0,0,0,0,0C4.4,2.3,4.4,2.5,4.4,2.6
				c-0.2-0.1-0.3,0-0.4,0.1C3.7,3,3.9,3.4,3.7,3.7c0,0,0,0.1,0,0.1C3.6,3.9,3.5,4,3.4,4.1l0,0C3.3,4.2,3.4,4.3,3.5,4.3z"/>
		</g>
		<path class="st1" d="M23.5,41c0,0,0.6,3.7,4.2,3.7s4.2-3.7,4.2-3.7"/>
		<line class="st3" x1="47.7" y1="26.4" x2="45.5" y2="27.2"/>
		<line class="st3" x1="7.1" y1="26.5" x2="8.9" y2="27.3"/>
	</g>
</g>
</svg>
