<?xml version="1.0" encoding="utf-8"?>
<!-- Generator: Adobe Illustrator 25.2.0, SVG Export Plug-In . SVG Version: 6.00 Build 0)  -->
<svg version="1.1" id="레이어_1" xmlns="http://www.w3.org/2000/svg" xmlns:xlink="http://www.w3.org/1999/xlink" x="0px"
	 y="0px" viewBox="0 0 247.7 40.8" style="enable-background:new 0 0 247.7 40.8;" xml:space="preserve">
<style type="text/css">
	.st0{fill:#FFFFFF;}
</style>
<g>
	<path class="st0" d="M20.2,9.7c0,0.7-0.3,1.1-1.1,1.1h-5.7v0.1c0,0.8-0.3,2-0.6,3c1.8,1.9,3.9,2.7,6.5,3.7c3.2,1.3,1.3,5.9-2.1,4.3
		c-1.3-0.6-3.9-2-6.2-4.8c-1.8,2.2-4.5,4.2-8.4,5.5c-2.1,0.8-3.6-2.3-1.6-3.3C5.9,16.7,8,13.7,8,10.8v0H5.5c-3.4,0-5-0.9-5-2.6V7.6
		c0-0.7,0.4-1.1,1.1-1.1h17.5c0.7,0,1.1,0.4,1.1,1.1V9.7z M16.9,3.3c0,0.7-0.3,1.1-1.1,1.1H9.1c-3.4,0-5-1-5-2.7V1.2
		c0-0.7,0.4-1.1,1.1-1.1h10.6c0.7,0,1.1,0.4,1.1,1.1V3.3z M28.4,29.7H11.7c-3.4,0-5-0.9-5-2.6v-0.8c0-0.7,0.4-1.1,1.1-1.1H33
		c0.7,0,1,0.4,1,1.1v7.5c0,4.2-1,5.6-2.9,5.6h-1.7c-0.7,0-1.1-0.4-1.1-1.1V29.7z M21.4,2.1c0-0.7,0.3-1.1,1.1-1.1h3
		c0.7,0,1.1,0.4,1.1,1.1v7.7h2.3V2c0-0.7,0.3-1.1,1-1.1H33c0.7,0,1,0.4,1,1.1v15.4c0,4.2-1,5.6-2.9,5.6h-1.3c-0.7,0-1-0.4-1-1.1
		v-7.6h-2.3v3.1c0,4.2-1,5.6-2.9,5.6h-1.2c-0.7,0-1.1-0.4-1.1-1.1V2.1z"/>
	<path class="st0" d="M49.6,0.8c6.8,0,11,3.8,11,9.8c0,6-4.2,9.8-11,9.8s-11-3.8-11-9.8C38.6,4.6,42.8,0.8,49.6,0.8z M49.6,16
		c3.2,0,5.4-1.9,5.4-5.4s-2.2-5.4-5.4-5.4s-5.4,1.9-5.4,5.4S46.4,16,49.6,16z M49.4,39.3c-3.4,0-4.8-1.5-4.8-5v-9.2
		c0-0.7,0.3-1.1,1.1-1.1h24.3c0.7,0,1.1,0.4,1.1,1.1v8.5c0,4.2-1,5.6-2.9,5.6h-1.7c-0.7,0-1.1-0.4-1.1-1.1V38
		C61.4,38.8,54,39.4,49.4,39.3z M64.1,34.2c0.9-0.2,1.3-0.7,1.3-1.6v-4H50.2v5.1c0,0.8,0.4,1.1,1.1,1.2C55.4,35,61.8,34.7,64.1,34.2
		z M65.3,2c0-0.7,0.3-1.1,1.1-1.1h3.5C70.6,0.9,71,1.3,71,2v14.2c0,4.2-1,5.6-2.9,5.6h-1.7c-0.7,0-1.1-0.4-1.1-1.1V2z"/>
	<path class="st0" d="M80.5,22.3c-2.1,0-3.8-1.7-3.8-3.7c0-2,1.6-3.7,3.8-3.7c2.1,0,3.8,1.7,3.8,3.7C84.2,20.5,82.6,22.3,80.5,22.3z
		"/>
	<path class="st0" d="M102.8,25.6v-2.8H92.2c-3.4,0-5-0.8-5-2.5v-0.7c0-0.7,0.4-1.1,1.1-1.1h34.6c0.7,0,1.1,0.4,1.1,1.1v2.1
		c0,0.7-0.3,1.1-1.1,1.1h-14.5v2.8c6.8,0.5,10,3.4,10,7.5c0,4.7-4.1,7.6-12.8,7.6c-8.7,0-12.8-2.9-12.8-7.6
		C92.8,29,96,26.2,102.8,25.6z M120.4,8.4c0,0.7-0.3,1.1-1,1.1h-11c-0.1,0.5-0.2,0.9-0.5,1.3c3.2,1.1,7.2,1.5,10.7,1.3
		c3.7-0.1,3.7,5,0.1,5c-4.6,0-9.5-1.1-13.2-3.6c-2.9,2.1-7.7,3.7-13.9,3.8c-2.3,0-2.7-3.3-0.4-3.6c6.7-0.7,10.5-2.3,11.3-4.2h-6.8
		c-3.4,0-5-0.8-5-2.4V6.7c0-0.7,0.4-1.1,1.1-1.1h27.4c0.7,0,1,0.4,1,1.1V8.4z M113.8,3c0,0.7-0.3,1.1-1,1.1h-10.8c-3.4,0-5-1-5-2.6
		V1.1C97,0.3,97.3,0,98.1,0h14.7c0.7,0,1,0.4,1,1.1V3z M105.6,29.8c-4.9,0-7.2,1.3-7.2,3.4c0,2.1,2.3,3.4,7.2,3.4
		c4.9,0,7.2-1.3,7.2-3.4C112.8,31,110.5,29.8,105.6,29.8z"/>
	<path class="st0" d="M140.5,6.7c0,1.6-0.3,3.1-0.8,4.5c2.2,2.6,5.2,4.1,8.1,5c3.9,1.2,1.8,6.6-1.8,5.1c-3-1.2-5.9-3.5-8.1-6.5
		c-2.1,3-5.7,5.7-10.3,7.4c-2.2,0.8-3.6-2.1-1.5-3.3c5.8-3.2,8.7-7.7,8.7-12.1V2.3c0-0.7,0.3-1.1,1.1-1.1h3.6c0.7,0,1,0.4,1,1.1V6.7
		z M146,23.1c8.2,0,12.2,3.5,12.2,8.8s-3.9,8.8-12.2,8.8c-8.2,0-12.2-3.5-12.2-8.8S137.7,23.1,146,23.1z M146,27.5
		c-4.4,0-6.6,1.7-6.6,4.4s2.1,4.4,6.6,4.4c4.4,0,6.6-1.7,6.6-4.4S150.4,27.5,146,27.5z M153.2,11.9h-3.5c-3.4,0-5-0.9-5-2.6V8.6
		c0-0.7,0.4-1.1,1.1-1.1h7.4V2c0-0.7,0.3-1.1,1.1-1.1h3.5c0.7,0,1.1,0.4,1.1,1.1v15.1c0,4.2-1,5.6-2.9,5.6h-1.7
		c-0.7,0-1.1-0.4-1.1-1.1V11.9z"/>
	<path class="st0" d="M168.3,22.3c-2.1,0-3.8-1.7-3.8-3.7c0-2,1.6-3.7,3.8-3.7c2.1,0,3.8,1.7,3.8,3.7
		C172.1,20.5,170.4,22.3,168.3,22.3z"/>
	<path class="st0" d="M182.4,20.4c-3.5,0-5.4-1.5-5.4-4.8V2.5c0-0.7,0.3-1.1,1.1-1.1h18.1c0.7,0,1.1,0.4,1.1,1.1v2.1h6.1V2
		c0-0.7,0.3-1.1,1-1.1h3.5c0.7,0,1,0.4,1,1.1v15.2c0,4.2-1,5.6-2.9,5.6h-1.7c-0.7,0-1-0.4-1-1.1v-4.6h-6.1v2.2
		c0,0.7-0.3,1.1-1.1,1.1H182.4z M191.8,16V5.9h-9.1v9c0,0.7,0.3,1.1,1.1,1.1H191.8z M196.2,23.1c8.2,0,12.2,3.5,12.2,8.8
		s-3.9,8.8-12.2,8.8S184,37.3,184,32S188,23.1,196.2,23.1z M196.2,27.6c-4.4,0-6.6,1.7-6.6,4.4s2.1,4.4,6.6,4.4
		c4.4,0,6.6-1.7,6.6-4.4S200.6,27.6,196.2,27.6z M197.3,12.8h6.1V8.9h-6.1V12.8z"/>
	<path class="st0" d="M223.1,1.3c4,0,6.7,1.7,8.3,4.6h4.5V2.1c0-0.7,0.3-1.1,1-1.1h2.9c0.7,0,1.1,0.4,1.1,1.1v31
		c0,4.2-0.9,5.6-2.8,5.6h-1.2c-0.7,0-1-0.4-1-1.1V23.2h-1c-1.6,0-2.7-0.2-3.5-0.5c-1.6,2.9-4.2,4.5-8.2,4.5c-7.1,0-9.9-5.2-9.9-13
		S216,1.3,223.1,1.3z M223.1,5.7c-3.4,0-4.7,2.9-4.7,8.5s1.3,8.5,4.7,8.5c3.4,0,4.7-2.9,4.7-8.5S226.5,5.7,223.1,5.7z M235,10.3
		c-0.9,0-1.6,0-2.3-0.2c0.2,1.3,0.3,2.6,0.3,4.1c0,1.6-0.1,3.2-0.4,4.5h3.2v-8.4H235z M242.6,2c0-0.7,0.3-1.1,1-1.1h3
		c0.7,0,1,0.4,1,1.1v31.5c0,4.2-0.9,5.6-2.8,5.6h-1.3c-0.7,0-1-0.4-1-1.1V2z"/>
</g>
</svg>
